<?xml version="1.0" encoding="utf-8"?>
<!DOCTYPE svg PUBLIC "-//W3C//DTD SVG 1.0//EN" "http://www.w3.org/TR/2001/REC-SVG-20010904/DTD/svg10.dtd">
<svg version="1.0" xmlns="http://www.w3.org/2000/svg" width="512px" height="512px" viewBox="0 0 512 512" preserveAspectRatio="xMidYMid meet">
 <g fill="#000000">
  <path d="M91.1 508.4 c-11.2 -10 -12.2 -30.9 -2 -41.9 6.6 -7.2 9.1 -7.9 27.9 -8.5 l16.5 -0.5 0.3 -13.7 0.3 -13.8 -47.9 0 c-30.3 0 -50 -0.4 -53.8 -1.1 -12.1 -2.2 -23.7 -10.2 -29.5 -20.3 l-2.9 -5.1 0 -130.6 0 -130.6 3.8 -5.9 c2.1 -3.2 5.6 -7.4 7.7 -9.3 5.6 -4.8 15.4 -9.2 23.3 -10.2 3.7 -0.4 50.5 -0.8 104 -0.9 l97.2 0 0 -48.9 c0 -34.5 0.3 -49.8 1.2 -52.2 1.6 -4.9 5 -9.6 8.9 -12.5 l3.3 -2.4 126.4 0 126.5 0 4.8 4.9 4.9 4.8 0 246.3 0 246.3 -4.9 4.8 -4.8 4.9 -203.7 0 -203.6 0 -3.9 -3.6z m192.3 -18.5 c3.2 -2.5 3.3 -5.3 0.4 -7.3 -2 -1.4 -11.9 -1.6 -87.4 -1.6 -84.6 0 -85.1 0 -87.8 2.1 -3.2 2.5 -3.2 3.3 -0.1 6.4 l2.4 2.5 84.9 0 c84.4 0 84.9 0 87.6 -2.1z m205.7 -0.8 l2.9 -2.9 0 -230.2 0 -230.2 -2.9 -2.9 -2.9 -2.9 -110.7 0 -110.7 0 -2.9 2.9 -2.9 2.9 0 45.1 0 45.1 46.3 0 c25.4 0 49.4 0.5 53.2 1 18.9 2.7 33.8 17.6 36.5 36.5 1.3 9.4 1.3 229.6 0 239 -2.7 18.7 -17.1 33.5 -35.6 36.5 -3.3 0.6 -27.2 1 -53.1 1 l-47.3 0 0 14 0 14 15.3 0 c16.4 0.1 20.2 0.9 26.2 5.4 6 4.6 8.8 10.7 9.3 20.3 l0.5 8.3 87.9 0 88 0 2.9 -2.9z m-253.1 -45.1 l0 -14 -39.5 0 -39.5 0 0 14 0 14 39.5 0 39.5 0 0 -14z m121 -39.6 c5.6 -2.6 10.7 -7.6 13.1 -12.9 l1.8 -4 -175.1 -0.3 c-96.3 -0.1 -175.3 0 -175.5 0.2 -0.8 0.7 2.4 7.1 5.2 10.4 3.1 3.7 9.2 7.2 14.5 8.3 1.9 0.4 72.8 0.6 157.5 0.5 l154 -0.1 4.5 -2.1z m15 -143.1 c0 -101.6 0 -102.7 -2.1 -106.9 -2.3 -4.9 -8.6 -11 -13.5 -13 -2.8 -1.2 -27.9 -1.4 -160.2 -1.4 l-156.8 0 -5.2 2.6 c-2.9 1.4 -6.6 4.2 -8.2 6.2 -6.2 7.5 -6 3.8 -6 114.4 l0 100.8 176 0 176 0 0 -102.7z"/>
  <path d="M324.3 478.6 c-2.8 -2.4 -2.8 -2.4 -3.1 -16.8 -0.3 -14.4 -0.3 -14.5 2.3 -17.6 2.5 -3 3.1 -3.2 9.1 -3.2 5.6 0 6.8 0.4 8.9 2.5 2.4 2.3 2.5 2.8 2.5 16.9 0 7.9 -0.3 15.2 -0.6 16.1 -1.9 4.8 -14.3 6.2 -19.1 2.1z"/>
  <path d="M360.3 480 c-4.4 -1.9 -5.5 -6 -5.1 -20.5 0.3 -12.5 0.4 -13.5 2.7 -15.9 2.1 -2.3 3.3 -2.6 8.6 -2.6 4.8 0 6.8 0.5 8.9 2.1 l2.6 2 0 15.4 c0 18.7 -0.4 19.7 -9.6 20.2 -3.2 0.1 -6.9 -0.1 -8.1 -0.7z"/>
  <path d="M394.3 480 c-3.7 -1.5 -4.3 -4.2 -4.3 -19.9 l0 -15 2.6 -2 c2.1 -1.6 4.1 -2.1 8.9 -2.1 5.3 0 6.5 0.3 8.6 2.6 2.2 2.4 2.4 3.4 2.7 15.3 0.5 18.6 -1.5 22.2 -12.1 22 -2.3 0 -5.2 -0.4 -6.4 -0.9z"/>
  <path d="M428.5 479.8 c-4.2 -2.2 -4.5 -3.6 -4.5 -19 0 -14.5 0.1 -15 2.5 -17.3 2.1 -2.1 3.3 -2.5 8.9 -2.5 6 0 6.6 0.2 9.1 3.2 2.6 3.1 2.6 3.2 2.3 17.6 -0.3 14.4 -0.3 14.4 -3.1 16.8 -2.2 1.9 -3.9 2.4 -8 2.4 -2.9 0 -6.1 -0.6 -7.2 -1.2z"/>
  <path d="M462.5 479.8 c-4.1 -2.4 -4.4 -3.8 -4.5 -19.1 0 -14.4 0.1 -14.9 2.5 -17.2 2.1 -2.1 3.3 -2.5 8.7 -2.5 10.6 0.1 11.8 2.1 11.8 20.5 l0 13.7 -2.9 2.9 c-2.5 2.5 -3.7 2.9 -8.3 2.9 -2.9 0 -6.2 -0.6 -7.3 -1.2z"/>
  <path d="M434 241.1 c-6.9 -2.1 -13 -7.3 -16.6 -14.1 -1.5 -2.7 -1.9 -5.7 -1.9 -13.5 0 -9.2 0.2 -10.4 2.9 -15.3 5.3 -9.5 12.2 -13.1 25.6 -13.1 13.2 -0.1 20.8 4.2 25.6 14.4 2 4.1 2.4 6.6 2.4 14.1 0 7.7 -0.4 9.8 -2.6 14.2 -3 6.1 -8.7 10.9 -15.1 12.8 -4.9 1.5 -16.1 1.7 -20.3 0.5z m12.9 -25.2 c2.2 -2.4 1.5 -5.1 -1.8 -6.8 -1.4 -0.8 -2.3 -0.5 -4 1.3 -2.5 2.7 -2.6 3.4 -0.4 5.8 2.1 2.4 3.8 2.3 6.2 -0.3z"/>
  <path d="M433.8 172.6 c-11.6 -3.1 -18.8 -13.6 -18.8 -27.6 0 -12 4.6 -20.3 14.1 -25.4 4.5 -2.5 6.4 -2.9 13.8 -3 11.2 -0.1 16.6 1.9 22.4 8.4 5.2 5.8 6.7 10.3 6.7 20.1 0 10.6 -1.3 14.3 -7.3 20.4 -4 4.1 -6.5 5.7 -10.6 6.9 -6.4 1.9 -13.8 2 -20.3 0.2z m12.4 -24.3 c2.3 -2.1 2.3 -4.5 -0.1 -6.7 -1.5 -1.4 -2.4 -1.5 -3.9 -0.7 -3.3 1.8 -3.8 5.2 -1.2 7.3 2.7 2.2 2.9 2.2 5.2 0.1z"/>
  <path d="M281.6 96 c-3.7 -1.2 -8.5 -5.6 -10.2 -9.7 -1 -2.3 -1.4 -7.6 -1.4 -18 0 -16.9 1.3 -21.2 7.1 -25.4 l3.4 -2.4 94 -0.2 94 -0.3 3.9 2.3 c2.5 1.4 4.8 3.9 6.3 6.6 2.1 4 2.3 5.7 2.3 18.8 0 18.8 -1.8 23.4 -10.5 27.4 -3.8 1.8 -8.7 1.9 -95 1.8 -50 0 -92.3 -0.5 -93.9 -0.9z m176.4 -27.5 l0 -5.5 -82.5 0 -82.5 0 0 5.5 0 5.5 82.5 0 82.5 0 0 -5.5z"/>
  <path d="M33.9 256.1 c-2.5 -2.5 -2.9 -3.7 -2.9 -8.3 0 -2.9 0.4 -5.9 0.8 -6.5 0.4 -0.7 20.7 -21.3 45.1 -45.8 l44.3 -44.5 6.7 0 c5.8 0 7.1 0.3 9 2.4 2.7 2.9 3.7 9.1 2.2 13.7 -0.8 2.5 -13.7 16 -45.4 47.7 l-44.3 44.2 -6.3 0 c-5.6 0 -6.6 -0.3 -9.2 -2.9z"/>
  <path d="M33.9 205.1 c-2.4 -2.5 -2.9 -3.7 -2.9 -8.1 0 -2.8 0.6 -6.3 1.4 -7.8 0.8 -1.5 9.5 -10.7 19.3 -20.4 l17.9 -17.8 7 0 c9.6 0 11.4 1.8 11.4 11.5 l0 6.8 -17.7 17.9 c-9.8 9.9 -19 18.6 -20.5 19.4 -1.5 0.8 -5 1.4 -7.8 1.4 -4.4 0 -5.6 -0.5 -8.1 -2.9z"/>
 </g>
 <g fill="#ffffff">
  <path d="M0.1 450.8 c0 -55.5 0.2 -60.8 1.5 -55.9 4.3 16 17.3 28 33.8 31 3.8 0.7 23.5 1.1 53.8 1.1 l47.8 0 -0.2 16.8 -0.3 16.7 -16.5 0.5 c-18.8 0.6 -21.3 1.3 -27.9 8.5 -12.7 13.8 -6.3 36 11.9 41.6 1.4 0.4 -21.5 0.8 -50.7 0.8 l-53.3 0.1 0.1 -61.2z"/>
  <path d="M493 511.1 c8.5 -2.6 15.5 -9.6 18.1 -18 0.4 -1.6 0.8 1.4 0.8 8.2 l0.1 10.7 -10.7 -0.1 c-6.6 0 -9.8 -0.4 -8.3 -0.8z"/>
  <path d="M105.5 492.5 c-3.8 -3.7 -3.7 -8.8 0.1 -12.2 l2.5 -2.3 88.5 0 88.5 0 2.4 2.5 c3.5 3.4 3.3 7.8 -0.4 11.6 l-2.9 2.9 -88.2 0 -88.1 0 -2.4 -2.5z"/>
  <path d="M306.5 486.8 c0 -7.3 -0.3 -8.9 -2.8 -13 -3.1 -5.3 -7.9 -9.4 -13.4 -11.4 -2.5 -0.9 -8.9 -1.3 -19 -1.4 l-15.3 0 0 -17 0 -17 47.3 0 c25.9 0 49.8 -0.4 53.1 -1 18.5 -3 32.9 -17.8 35.6 -36.5 1.3 -9.4 1.3 -223.6 0 -233 -2.7 -18.9 -17.6 -33.8 -36.5 -36.5 -3.8 -0.5 -27.8 -1 -53.2 -1 l-46.3 0 0 -48.1 0 -48.1 2.9 -2.9 2.9 -2.9 113.7 0 113.7 0 2.9 2.9 2.9 2.9 0 233.2 0 233.2 -2.9 2.9 -2.9 2.9 -91.4 0 -91.3 0 0 -8.2z m30.4 -10.3 c1.6 -0.8 3.1 -2.2 3.5 -3 0.3 -0.9 0.6 -6.8 0.6 -13.1 0 -10.9 -0.1 -11.6 -2.5 -13.9 -3.6 -3.7 -8.6 -3.4 -12 0.7 -2.6 3.1 -2.7 3.4 -2.3 14.6 0.3 11 0.4 11.4 3.1 13.8 3.2 2.8 5.6 3 9.6 0.9z m36.4 -1.6 c1.4 -1.8 1.7 -4.2 1.7 -14.4 0 -12.2 0 -12.4 -2.6 -14.4 -3.7 -2.9 -8.5 -2.7 -11.5 0.5 -2.2 2.3 -2.4 3.6 -2.7 12.9 -0.4 11.3 0.9 15.8 5.1 17.5 3.2 1.4 7.9 0.3 10 -2.1z m31.2 2.1 c4.2 -1.6 5.7 -6.8 5.3 -18.1 -0.3 -8.7 -0.6 -10 -2.7 -12.3 -3 -3.2 -7.8 -3.4 -11.5 -0.5 -2.5 2 -2.6 2.3 -2.6 14 0 12.6 0.7 15.4 4.3 16.9 2.9 1.2 4.1 1.2 7.2 0z m36.2 -1.4 c2.7 -2.4 2.8 -2.8 3.1 -13.8 0.4 -11.2 0.3 -11.5 -2.3 -14.6 -3.4 -4.1 -8.4 -4.4 -12 -0.7 -2.4 2.3 -2.5 3 -2.5 14.3 0 12.2 0.5 13.8 4.5 16 3.2 1.8 6.2 1.4 9.2 -1.2z m34.4 -0.5 c2.8 -2.9 2.9 -3.2 2.9 -13.6 0 -13.7 -1.8 -17.4 -8.8 -17.5 -2.2 0 -4.1 0.8 -5.7 2.5 -2.4 2.3 -2.5 3 -2.5 14.2 0.1 12.1 0.5 13.8 4.5 16.1 3.3 1.9 6.5 1.3 9.6 -1.7z m-23.8 -237.5 c10.6 -3.2 17.7 -12.9 17.7 -24 -0.1 -14.5 -10.9 -25.6 -25 -25.5 -10.3 0 -17.7 4.4 -22.6 13.1 -2.4 4.5 -2.9 6.4 -2.9 12.3 0.1 7.8 1.6 11.8 6.9 17.3 6.9 7.4 16 9.8 25.9 6.8z m-0.2 -68.2 c6.7 -2 15.2 -10.1 16.8 -16.1 2.7 -9.5 0.7 -18.3 -5.6 -25.3 -5.3 -5.9 -10.7 -8.2 -19.1 -8.2 -15.9 0.1 -27.8 15 -24.3 30.6 2.1 9.5 9 16.8 18 19.2 6.2 1.7 7.8 1.7 14.2 -0.2z m16.4 -77.3 c8.3 -3.8 10.5 -8.9 10.5 -24.4 0 -10 -0.3 -11.9 -2.3 -15.8 -1.5 -2.7 -3.8 -5.2 -6.3 -6.6 l-3.9 -2.3 -91 0.3 -91 0.2 -3.4 2.4 c-5.5 4 -7.1 8.8 -7.1 22.4 0 7.8 0.5 12.8 1.4 15 1.7 4.1 6.5 8.5 10.2 9.7 1.6 0.4 42.5 0.9 90.9 0.9 83.4 0.1 88.2 0 92 -1.8z"/>
  <path d="M438.6 219.8 c-4 -3.5 -4.3 -7.8 -1.1 -11.6 3.4 -4.1 8.4 -4.4 12 -0.7 7.5 7.4 -3.1 19.2 -10.9 12.3z"/>
  <path d="M440.2 152.5 c-8.3 -3.6 -5.5 -15.5 3.7 -15.5 7.1 0 10.7 8.1 5.9 13.4 -3 3.2 -5.6 3.8 -9.6 2.1z"/>
  <path d="M290 68.5 l0 -8.5 85.5 0 85.5 0 0 8.5 0 8.5 -85.5 0 -85.5 0 0 -8.5z"/>
  <path d="M154 444 l0 -17 42.5 0 42.5 0 0 17 0 17 -42.5 0 -42.5 0 0 -17z"/>
  <path d="M38 409.1 c-5.5 -1.2 -11.5 -4.7 -14.9 -8.8 -3 -3.7 -6.1 -11 -6.1 -14.5 0 -1.7 6.5 -1.8 179 -1.8 l179 0 0 3.3 c-0.1 7.3 -6.7 16.3 -15 20.1 l-4.5 2.1 -157 0.1 c-86.3 0.1 -158.6 -0.1 -160.5 -0.5z"/>
  <path d="M17 263.2 c0 -113.9 -0.2 -109.9 6 -117.4 1.6 -2 5.3 -4.8 8.2 -6.2 l5.2 -2.6 159.8 0 c134.9 0 160.4 0.2 163.2 1.4 4.9 2 11.2 8.1 13.5 13 2.1 4.2 2.1 5.3 2.1 109.9 l0 105.7 -179 0 -179 0 0 -103.8z m73.3 -50.9 c24.6 -24.6 44.5 -45.2 45.3 -47 2.4 -5.6 -1.5 -11.3 -7.7 -11.3 -3.6 0 -5.4 1.7 -48 44.5 -24.4 24.5 -44.7 45.1 -45.1 45.8 -2.8 4.3 2.5 11.7 8.3 11.7 3.1 0 7.1 -3.8 47.2 -43.7z m-43.5 -8.7 c1.5 -0.8 10.7 -9.5 20.5 -19.4 16.7 -16.9 17.7 -18.1 17.7 -21.7 0 -5.4 -3.1 -8.5 -8.4 -8.5 -3.8 0 -4.7 0.7 -21.9 17.8 -9.8 9.7 -18.5 18.9 -19.3 20.4 -2.1 4 -1.7 6.6 1.5 9.9 3.3 3.2 5.8 3.6 9.9 1.5z"/>
  <path d="M0.1 78.3 l-0.1 -78.3 129.8 0 129.7 0 -5 2.4 c-5.9 2.7 -10.5 7 -13.1 12.3 -1.8 3.6 -1.9 7 -2.2 54.1 l-0.3 50.2 -97.2 0 c-53.4 0.1 -100.3 0.5 -104.1 1 -17.2 2.2 -31.6 14.6 -36 31 -1.3 5 -1.5 -2 -1.5 -72.7z"/>
  <path d="M511 19.5 c0 -5.6 -10.1 -16.5 -16.8 -18.3 -3.1 -0.8 -2 -1 7.1 -1.1 l10.7 -0.1 0 10.5 c0 5.8 -0.2 10.5 -0.5 10.5 -0.3 0 -0.5 -0.7 -0.5 -1.5z"/>
 </g>
</svg>